<?xml version="1.0" standalone="no"?>
<!DOCTYPE svg PUBLIC "-//W3C//DTD SVG 20010904//EN"
 "http://www.w3.org/TR/2001/REC-SVG-20010904/DTD/svg10.dtd">
<svg version="1.0" xmlns="http://www.w3.org/2000/svg"
 width="500.000000pt" height="500.000000pt" viewBox="0 0 500.000000 500.000000"
 preserveAspectRatio="xMidYMid meet">
<metadata>
Created by potrace 1.14, written by Peter Selinger 2001-2017
</metadata>
<g transform="translate(0.000000,500.000000) scale(0.100000,-0.100000)"
fill="#000000" stroke="none">
<path d="M2365 4697 c-106 -35 -118 -47 -1067 -995 -1087 -1087 -1003 -987
-1003 -1192 0 -109 2 -118 33 -185 30 -63 61 -98 330 -367 163 -164 300 -298
305 -298 4 0 120 112 257 248 l249 249 -177 176 -177 177 688 687 687 688 550
-550 c302 -302 552 -547 554 -545 3 3 116 115 250 249 l245 244 -640 648
c-353 356 -664 666 -693 688 -87 67 -137 85 -251 88 -64 2 -115 -2 -140 -10z"/>
<path d="M2313 3157 c-79 -79 -143 -141 -143 -138 0 3 -4 -1 -10 -9 -14 -23
-222 -230 -231 -230 -4 0 -9 -4 -11 -10 -1 -5 -54 -61 -115 -123 -153 -155
-155 -136 40 -333 84 -85 152 -154 150 -154 -2 0 16 -17 39 -37 64 -59 158
-156 158 -165 0 -4 7 -8 16 -8 8 0 12 -4 9 -10 -3 -5 -2 -10 3 -10 5 0 61 -52
124 -115 152 -151 145 -151 285 -12 56 57 103 101 103 98 0 -3 5 1 10 9 5 8
131 137 280 286 242 243 270 274 270 304 0 27 -15 47 -100 133 -55 55 -100
105 -100 111 0 5 -2 7 -5 4 -3 -2 -130 121 -283 274 -257 257 -280 278 -312
278 -32 0 -49 -14 -177 -143z"/>
<path d="M3423 2072 l-931 -937 -376 375 -376 375 -253 -253 -252 -252 515
-515 c598 -597 563 -570 740 -570 176 0 132 -35 818 649 327 325 810 811 1075
1079 l481 488 -250 250 c-137 137 -251 249 -254 249 -3 0 -424 -422 -937 -938z"/>
</g>
</svg>
